<?xml version="1.0" encoding="UTF-8" standalone="no"?>
<!-- Created with Inkscape (http://www.inkscape.org/) -->

<svg
   xmlns:dc="http://purl.org/dc/elements/1.1/"
   xmlns:cc="http://creativecommons.org/ns#"
   xmlns:rdf="http://www.w3.org/1999/02/22-rdf-syntax-ns#"
   xmlns:svg="http://www.w3.org/2000/svg"
   xmlns="http://www.w3.org/2000/svg"
   xmlns:sodipodi="http://sodipodi.sourceforge.net/DTD/sodipodi-0.dtd"
   xmlns:inkscape="http://www.inkscape.org/namespaces/inkscape"
   width="15"
   height="15"
   id="svg2"
   version="1.1"
   inkscape:version="0.48.4 r9939"
   sodipodi:docname="almost_equals.eps">
  <defs
     id="defs4" />
  <sodipodi:namedview
     id="base"
     pagecolor="#ffffff"
     bordercolor="#666666"
     borderopacity="1.0"
     inkscape:pageopacity="0"
     inkscape:pageshadow="2"
     inkscape:zoom="45.254834"
     inkscape:cx="6.0303235"
     inkscape:cy="9.0950345"
     inkscape:document-units="px"
     inkscape:current-layer="text2995"
     showgrid="false"
     borderlayer="false"
     showguides="true"
     inkscape:guide-bbox="true"
     inkscape:window-width="1680"
     inkscape:window-height="1000"
     inkscape:window-x="0"
     inkscape:window-y="0"
     inkscape:window-maximized="1" />
  <metadata
     id="metadata7">
    <rdf:RDF>
      <cc:Work
         rdf:about="">
        <dc:format>image/svg+xml</dc:format>
        <dc:type
           rdf:resource="http://purl.org/dc/dcmitype/StillImage" />
        <dc:title></dc:title>
      </cc:Work>
    </rdf:RDF>
  </metadata>
  <g
     inkscape:label="Layer 1"
     inkscape:groupmode="layer"
     id="layer1"
     transform="translate(0,-1037.3622)">
    <g
       transform="matrix(0.59480094,0,0,0.65491593,0.03076695,390.87952)"
       style="font-size:62.5521431px;font-style:normal;font-weight:normal;line-height:125%;letter-spacing:0px;word-spacing:0px;fill:#000000;fill-opacity:1;stroke:none;font-family:Sans"
       id="text2985">
      <path
         d="m 15.754988,995.82215 0,2.18688 c -0.855223,0.6353 -1.649341,1.09548 -2.382357,1.38054 -0.724903,0.27693 -1.48237,0.41539 -2.272402,0.41539 -0.895942,0 -1.9384767,-0.24027 -3.1276073,-0.72082 -0.081459,-0.0326 -0.1506893,-0.0611 -0.2076926,-0.0855 -0.048879,-0.0163 -0.1343996,-0.0489 -0.2565616,-0.0977 -1.2624543,-0.49682 -2.2764822,-0.74524 -3.0420866,-0.74525 -0.7167496,10e-6 -1.4253473,0.15476 -2.1257954,0.46426 -0.7004579,0.30951 -1.44977967,0.80634 -2.24796762,1.49055 l 0,-2.18693 c 0.85520156,-0.63529 1.64524732,-1.0914 2.37013972,-1.36833 0.7330272,-0.28506 1.4945662,-0.4276 2.2846193,-0.4276 0.8959209,0 1.942528,0.24028 3.1398243,0.72081 0.089582,0.0407 0.1547408,0.0692 0.1954755,0.0855 0.048858,0.0163 0.1343786,0.0489 0.2565615,0.0977 1.2624334,0.49684 2.2764608,0.74526 3.0420868,0.74525 0.700439,1e-5 1.392747,-0.15067 2.076926,-0.45204 0.692293,-0.30949 1.457904,-0.8104 2.296837,-1.50271 m 0,-4.7525 0,2.17466 c -0.855223,0.64345 -1.649341,1.10771 -2.382357,1.39277 -0.724903,0.27693 -1.48237,0.41539 -2.272402,0.41538 -0.895942,10e-6 -1.9384767,-0.24026 -3.1276073,-0.72081 -0.081459,-0.0326 -0.1506893,-0.0611 -0.2076926,-0.0855 -0.048879,-0.0163 -0.1343996,-0.0489 -0.2565616,-0.0977 -1.2624543,-0.49683 -2.2764822,-0.74524 -3.0420866,-0.74525 -0.7167496,10e-6 -1.4253473,0.15476 -2.1257954,0.46425 -0.7004579,0.30951 -1.44977967,0.80227 -2.24796762,1.47829 l 0,-2.17467 c 0.85520156,-0.63528 1.64524732,-1.09139 2.37013972,-1.36833 0.7330272,-0.28505 1.4945662,-0.42759 2.2846193,-0.4276 0.8959209,10e-6 1.942528,0.24028 3.1398243,0.72082 0.081438,0.0326 0.1425236,0.057 0.1832582,0.0733 0.057003,0.0244 0.1465959,0.0611 0.2687788,0.10995 1.2624334,0.49685 2.2764608,0.74526 3.0420868,0.74525 0.700439,10e-6 1.392747,-0.15066 2.076926,-0.45203 0.692293,-0.30949 1.457904,-0.8104 2.296837,-1.50272"
         style="font-size:25.02085686px"
         id="path3018"
         inkscape:connector-curvature="0" />
    </g>
    <g
       transform="matrix(0.95300032,0,0,1.0493176,-10.85914,3.835423)"
       style="font-size:62.5521431px;font-style:normal;font-weight:normal;line-height:125%;letter-spacing:0px;word-spacing:0px;fill:#00ffff;fill-opacity:1;stroke:none;font-family:Sans"
       id="text2995">
      <path
         d="m 21.256077,988.76803 c -0.533775,0.4016 -1.029412,0.69136 -1.486913,0.86927 -0.452438,0.17285 -0.925199,0.25927 -1.418285,0.25926 -0.559189,10e-6 -1.209872,-0.14995 -1.95205,-0.44989 -0.05084,-0.0203 -0.09405,-0.0381 -0.129628,-0.0534 -0.03051,-0.0102 -0.08388,-0.0305 -0.160129,-0.061 -0.787942,-0.31009 -1.420833,-0.46513 -1.898673,-0.46513 -0.447349,0 -0.88961,0.0966 -1.326784,0.28975 -0.43718,0.19318 -0.904858,0.50073 -1.403035,0.92265 l 0,1.60892 c 0.533761,-0.3965 1.026856,-0.68118 1.479287,-0.85402 0.457508,-0.17792 0.932812,-0.26688 1.425911,-0.26689 0.559176,1e-5 1.2124,0.14997 1.959675,0.44989 0.05591,0.0254 0.09658,0.0432 0.122003,0.0534 0.0305,0.0102 0.08387,0.0305 0.160129,0.061 0.787929,0.31009 1.420819,0.46513 1.898673,0.46513 0.437169,0 0.869262,-0.094 1.296283,-0.28213 0.432083,-0.19317 0.909929,-0.5058 1.433536,-0.9379"
         style="font-size:25.02085686px;fill:#ffffff;fill-opacity:1"
         id="path3012"
         inkscape:connector-curvature="0"
         sodipodi:nodetypes="cccccccccccccccscc" />
    </g>
  </g>
</svg>
